<svg width="80" height="80" viewBox="0 0 80 80" fill="none" xmlns="http://www.w3.org/2000/svg">
<path d="M66.065 59.4464L63.8426 32.7797C63.5546 29.3244 60.6663 26.6667 57.199 26.6667H53.3333H26.6666H22.8009C19.3336 26.6667 16.4452 29.3244 16.1572 32.7797L13.935 59.4464C13.6111 63.333 16.6784 66.6667 20.5786 66.6667H59.4213C63.3216 66.6667 66.389 63.333 66.065 59.4464Z" stroke="white" stroke-width="3.5" stroke-linecap="round" stroke-linejoin="round"/>
<path d="M53.3333 40V26.6667V23.3333C53.3333 19.7971 51.9286 16.4057 49.428 13.9052C46.9276 11.4048 43.5363 10 40 10C36.4636 10 33.0724 11.4048 30.5719 13.9052C28.0714 16.4057 26.6666 19.7971 26.6666 23.3333V26.6667V40" stroke="white" stroke-width="3.5" stroke-linecap="round" stroke-linejoin="round"/>
</svg>
